<svg xmlns="http://www.w3.org/2000/svg" viewBox="0 0 1953.93 642.65"><defs><style>.cls-1,.cls-10,.cls-11,.cls-12,.cls-13,.cls-2,.cls-3,.cls-4,.cls-5,.cls-6,.cls-7,.cls-8,.cls-9{fill:#001c57;fill-rule:evenodd;isolation:isolate;}.cls-1{opacity:0.97;}.cls-2{opacity:0.97;}.cls-3{opacity:0.98;}.cls-4{opacity:0.98;}.cls-5{opacity:0.97;}.cls-6{opacity:0.97;}.cls-7{opacity:0.98;}.cls-8{opacity:0.98;}.cls-9{opacity:0.82;}.cls-10{opacity:0.99;}.cls-11{opacity:0.97;}.cls-12{opacity:0.87;}.cls-13{opacity:0.99;}</style></defs><g id="Capa_2" data-name="Capa 2"><g id="Capa_1-2" data-name="Capa 1"><path class="cls-1" d="M1302,.1q32.14-1.84,36,30-1.82,23.9-25,29.5-17.88,2.2-29.5-11.5-13.62-23.89,6.5-42.5A96.07,96.07,0,0,1,1302,.1Z"/><path class="cls-2" d="M1465,.1q32.16-1.83,36,30-1.82,23.9-25,29.5-20.19,2.28-31.5-14.5Q1432.1,11.93,1465,.1Z"/><path class="cls-3" d="M858,1.1q64.49-5.77,90,53-20.28,9.69-41.5,18-20-38.65-60.5-21.5-18.88,12.34-8.5,32.5A66.31,66.31,0,0,0,864,100.6a323,323,0,0,1,50,19q58.44,33.28,36.5,97.5-20,37.43-62.5,43.5-83.41,9.31-111-69.5,22.69-9.85,46-18,14.94,55.72,70,38.5,23.82-15.22,10.5-40.5A71.36,71.36,0,0,0,878,153.6q-21.88-8.79-44-17-63.78-29.31-40.5-95.5Q815.58,4.79,858,1.1Z"/><path class="cls-4" d="M0,7.1H48q-.49,53,1,106,46.31-52,91-105.5,29-.75,58-.5a8.5,8.5,0,0,1-2.5,7Q152,63.38,109,113.1q49,69.71,98.5,139a8.39,8.39,0,0,1,.5,4q-29.5.25-59-.5-36.93-52.11-73.5-104.5-14.07,15.57-27,32-.75,36.5-.5,73H0Z"/><path class="cls-5" d="M1366,7.1h47v249h-47Z"/><path class="cls-6" d="M274,73.1q44.55-5.68,77.5,24,29.17,34.7,23,80-65.92,3-132.5,2,7.56,39.54,48,42a57.46,57.46,0,0,0,34-12.5,102.94,102.94,0,0,1,11.5-12.5q18.58,8.67,36.5,18.5-34.77,56.63-101,46-64.58-14.07-74.5-79.5-6.24-60.85,43.5-95.5A100,100,0,0,1,274,73.1Zm6,38q35.5-3.39,49.5,29a13,13,0,0,1,.5,5q-43,.5-86-1Q253.54,118.06,280,111.1Z"/><path class="cls-5" d="M463,73.1q47.13-6,80.5,27,26.29,35.13,20.5,79H431q7.62,39.63,48,42,29.08-1.41,45.5-25,18.66,8.72,36.5,18.5-23.5,42.29-72,47-53.29,5-86.5-36.5-27.25-42.57-12-91Q409.92,83.31,463,73.1Zm6,38q39-3.16,51,33.5-43.5,1-87,0Q442.23,118.13,469,111.1Z"/><path class="cls-3" d="M671,73.1q68.63-4.06,92.5,60,14.58,50.58-13,95-32.18,40.4-83.5,32.5a62.74,62.74,0,0,1-39-25.5l-1,1.5q1.57,9.69,2.5,19.5.75,37.5.5,75H583V78.1h44a121.68,121.68,0,0,0,1,22A70.7,70.7,0,0,1,671,73.1Zm-3,43q44.16-1.08,53.5,42,4.83,39.1-29.5,57.5-40.74,11.76-60.5-25.5-11.58-30.45,7-57A53.3,53.3,0,0,1,668,116.1Z"/><path class="cls-7" d="M1068,73.1q34.95-4.77,58.5,21a58.88,58.88,0,0,1,5,9q27-36.36,72.5-29.5,44.24,9.24,48.5,54.5.75,64,.5,128h-46q.26-57.49-.5-115-8.79-32.64-41.5-22.5-22.32,11.88-24.5,37.5-.75,50-.5,100h-47q.26-57.49-.5-115-9.52-32.64-42.5-22.5-21.37,12.45-23.5,37.5-.75,50-.5,100H979V78.1h44v22q6.52-5.76,13-12.5A77.52,77.52,0,0,1,1068,73.1Z"/><path class="cls-4" d="M1617,73.1q71-5.68,77.5,65,.75,59,.5,118h-47q.7-59.06-1.5-118-7.41-21.64-30.5-22-30.29,2.52-38.5,32a74.64,74.64,0,0,0-2,11q-.75,48.5-.5,97h-46V78.1h43v22a3.08,3.08,0,0,0,3-1A66.87,66.87,0,0,1,1617,73.1Z"/><path class="cls-8" d="M1788,73.1q39.59-5.47,66,24a90.85,90.85,0,0,0,1-19h44q.26,91-.5,182-10.83,68.32-79.5,76.5-53.74,6.22-88.5-34.5a44.76,44.76,0,0,1-8.5-18q21.62-8.06,43-17,20.46,38,62,25.5,20.24-8.24,25.5-29.5a87.38,87.38,0,0,0,1.5-31q-21.23,25.23-54.5,24-58-2.52-78-57-16.53-54.82,18-100A89,89,0,0,1,1788,73.1Zm14,42q50.4-.84,53,49.5-.7,39.69-39,49-56.87-.37-52.5-57.5Q1768.66,122.2,1802,115.1Z"/><path class="cls-9" d="M1931,74.1q26.07,1.13,22.5,27-7.5,18.12-26.5,13.5-17.8-8.37-12.5-27.5A22.57,22.57,0,0,1,1931,74.1Zm1,5q22.79,3.59,14.5,25-13.44,12.36-26-1Q1913.75,85.09,1932,79.1Zm0,10c3.09-.3,4.75,1,5,4h-5Z"/><path class="cls-10" d="M1285,78.1h46v178h-46Z"/><path class="cls-11" d="M1447,78.1h47v178h-47Z"/><path class="cls-12" d="M1927,85.1a73,73,0,0,1,12,.5,4.58,4.58,0,0,1,2.5,2.5q2.19,6.42-3.5,9.5a73.3,73.3,0,0,0,5,6.5,6.54,6.54,0,0,1-6,.5q-5.68-12.59-5,.5h-5Zm5,4v4h5C1936.75,90.13,1935.09,88.8,1932,89.1Z"/><path class="cls-13" d="M310,366.1a30.64,30.64,0,0,1,9,1.5q310.28,183,671,176,317.6-15.26,591-176,15.51-5,18,11a14.07,14.07,0,0,1-2.5,7.5Q1393,579.75,1114,628.6q-301.35,50.21-578-79A1025,1025,0,0,1,305.5,390.1Q293,375,310,366.1Z"/></g></g></svg>